<?xml version="1.0" encoding="UTF-8"?>
<svg width="600" height="400" xmlns="http://www.w3.org/2000/svg">
  <defs>
    <style>
      .title { font-family: Arial, sans-serif; font-size: 16px; font-weight: bold; }
      .text { font-family: Arial, sans-serif; font-size: 11px; }
      .axis { stroke: #333; stroke-width: 2; fill: none; }
      .no-cache { fill: #f44336; }
      .traditional-cache { fill: #ff9800; }
      .indexdb-cache { fill: #4caf50; }
      .legend { font-family: Arial, sans-serif; font-size: 10px; }
    </style>
  </defs>
  
  <text x="300" y="25" class="title" text-anchor="middle">Cache Performance Comparison</text>
  
  <g transform="translate(80, 50)">
    <!-- Axes -->
    <line x1="0" y1="300" x2="450" y2="300" class="axis"/>
    <line x1="0" y1="0" x2="0" y2="300" class="axis"/>
    
    <!-- Y-axis labels -->
    <text x="-10" y="305" class="text" text-anchor="end">0</text>
    <text x="-10" y="255" class="text" text-anchor="end">200</text>
    <text x="-10" y="205" class="text" text-anchor="end">400</text>
    <text x="-10" y="155" class="text" text-anchor="end">600</text>
    <text x="-10" y="105" class="text" text-anchor="end">800</text>
    <text x="-10" y="55" class="text" text-anchor="end">1000</text>
    <text x="-10" y="5" class="text" text-anchor="end">1200</text>
    
    <text x="-50" y="150" class="text" text-anchor="middle" transform="rotate(-90, -50, 150)">Response Time (ms)</text>
    
    <!-- X-axis labels -->
    <text x="90" y="320" class="text" text-anchor="middle">First Load</text>
    <text x="200" y="320" class="text" text-anchor="middle">Repeat Access</text>
    <text x="310" y="320" class="text" text-anchor="middle">Offline Access</text>
    <text x="420" y="320" class="text" text-anchor="middle">Cache Hit Rate</text>
    
    <!-- No cache bars -->
    <rect x="40" y="36" width="25" height="264" class="no-cache"/>
    <rect x="150" y="36" width="25" height="264" class="no-cache"/>
    <rect x="260" y="180" width="25" height="120" class="no-cache"/>
    <rect x="370" y="300" width="25" height="0" class="no-cache"/>
    
    <!-- Traditional cache bars -->
    <rect x="75" y="41" width="25" height="259" class="traditional-cache"/>
    <rect x="185" y="264" width="25" height="36" class="traditional-cache"/>
    <rect x="295" y="180" width="25" height="120" class="traditional-cache"/>
    <rect x="405" y="162" width="25" height="138" class="traditional-cache"/>
    
    <!-- IndexDB cache bars -->
    <rect x="110" y="79" width="25" height="221" class="indexdb-cache"/>
    <rect x="220" y="278" width="25" height="22" class="indexdb-cache"/>
    <rect x="330" y="261" width="25" height="39" class="indexdb-cache"/>
    <rect x="440" y="83" width="25" height="217" class="indexdb-cache"/>
    
    <!-- Value labels -->
    <text x="52" y="30" class="text" text-anchor="middle" font-size="9px">1250</text>
    <text x="162" y="30" class="text" text-anchor="middle" font-size="9px">1250</text>
    <text x="272" y="174" class="text" text-anchor="middle" font-size="9px">Timeout</text>
    <text x="382" y="295" class="text" text-anchor="middle" font-size="9px">0%</text>
    
    <text x="87" y="35" class="text" text-anchor="middle" font-size="9px">1180</text>
    <text x="197" y="258" class="text" text-anchor="middle" font-size="9px">145</text>
    <text x="307" y="174" class="text" text-anchor="middle" font-size="9px">Timeout</text>
    <text x="417" y="156" class="text" text-anchor="middle" font-size="9px">56%</text>
    
    <text x="122" y="73" class="text" text-anchor="middle" font-size="9px">890</text>
    <text x="232" y="272" class="text" text-anchor="middle" font-size="9px">89</text>
    <text x="342" y="255" class="text" text-anchor="middle" font-size="9px">156</text>
    <text x="452" y="77" class="text" text-anchor="middle" font-size="9px">87%</text>
  </g>
  
  <!-- Legend -->
  <g transform="translate(400, 70)">
    <rect x="0" y="0" width="15" height="15" class="no-cache"/>
    <text x="20" y="12" class="legend">No Cache</text>
    <rect x="0" y="20" width="15" height="15" class="traditional-cache"/>
    <text x="20" y="32" class="legend">Traditional Cache</text>
    <rect x="0" y="40" width="15" height="15" class="indexdb-cache"/>
    <text x="20" y="52" class="legend">IndexDB Smart Cache</text>
  </g>
</svg>