<?xml version="1.0" encoding="UTF-8"?>
<svg width="500" height="350" xmlns="http://www.w3.org/2000/svg">
  <defs>
    <style>
      .title { font-family: Arial, sans-serif; font-size: 16px; font-weight: bold; }
      .text { font-family: Arial, sans-serif; font-size: 11px; }
      .axis { stroke: #333; stroke-width: 2; fill: none; }
      .traditional { fill: #ff5722; }
      .improved { fill: #4caf50; }
      .legend { font-family: Arial, sans-serif; font-size: 10px; }
    </style>
  </defs>
  
  <text x="250" y="25" class="title" text-anchor="middle">Coordinate Transformation Accuracy Comparison</text>
  
  <g transform="translate(80, 50)">
    <!-- Axes -->
    <line x1="0" y1="250" x2="350" y2="250" class="axis"/>
    <line x1="0" y1="0" x2="0" y2="250" class="axis"/>
    
    <!-- Y-axis labels -->
    <text x="-10" y="255" class="text" text-anchor="end">0</text>
    <text x="-10" y="205" class="text" text-anchor="end">1</text>
    <text x="-10" y="155" class="text" text-anchor="end">2</text>
    <text x="-10" y="105" class="text" text-anchor="end">3</text>
    <text x="-10" y="55" class="text" text-anchor="end">4</text>
    
    <text x="-40" y="125" class="text" text-anchor="middle" transform="rotate(-90, -40, 125)">Transformation Accuracy Error (m)</text>
    
    <!-- X-axis labels -->
    <text x="50" y="270" class="text" text-anchor="middle">WGS84-GCJ02</text>
    <text x="130" y="270" class="text" text-anchor="middle">GCJ02-BD09</text>
    <text x="210" y="270" class="text" text-anchor="middle">UTM-WGS84</text>
    <text x="290" y="270" class="text" text-anchor="middle">Custom CRS</text>
    
    <!-- Traditional method bars -->
    <rect x="30" y="225" width="20" height="25" class="traditional"/>
    <rect x="110" y="210" width="20" height="40" class="traditional"/>
    <rect x="190" y="190" width="20" height="60" class="traditional"/>
    <rect x="270" y="145" width="20" height="105" class="traditional"/>
    
    <!-- Improved method bars -->
    <rect x="60" y="235" width="20" height="15" class="improved"/>
    <rect x="140" y="230" width="20" height="20" class="improved"/>
    <rect x="220" y="215" width="20" height="35" class="improved"/>
    <rect x="300" y="195" width="20" height="55" class="improved"/>
    
    <!-- Value labels -->
    <text x="40" y="218" class="text" text-anchor="middle" font-size="9px">0.5</text>
    <text x="120" y="203" class="text" text-anchor="middle" font-size="9px">0.8</text>
    <text x="200" y="183" class="text" text-anchor="middle" font-size="9px">1.2</text>
    <text x="280" y="138" class="text" text-anchor="middle" font-size="9px">2.1</text>
    
    <text x="70" y="228" class="text" text-anchor="middle" font-size="9px">0.3</text>
    <text x="150" y="223" class="text" text-anchor="middle" font-size="9px">0.4</text>
    <text x="230" y="208" class="text" text-anchor="middle" font-size="9px">0.7</text>
    <text x="310" y="188" class="text" text-anchor="middle" font-size="9px">1.1</text>
  </g>
  
  <!-- Legend -->
  <g transform="translate(300, 70)">
    <rect x="0" y="0" width="15" height="15" class="traditional"/>
    <text x="20" y="12" class="legend">Traditional Method</text>
    <rect x="0" y="20" width="15" height="15" class="improved"/>
    <text x="20" y="32" class="legend">Improved Method</text>
  </g>
</svg>