<?xml version="1.0" encoding="UTF-8"?>
<svg width="900" height="700" xmlns="http://www.w3.org/2000/svg">
  <defs>
    <style>
      .title { font-family: Arial, sans-serif; font-size: 16px; font-weight: bold; text-anchor: middle; }
      .subtitle { font-family: Arial, sans-serif; font-size: 11px; text-anchor: middle; }
      .small-text { font-family: Arial, sans-serif; font-size: 9px; text-anchor: middle; }
      .input { fill: #e6f3ff; stroke: #0066cc; stroke-width: 2; }
      .processing { fill: #fff2e6; stroke: #ff6600; stroke-width: 2; }
      .model { fill: #ffe6e6; stroke: #cc0000; stroke-width: 2; }
      .output { fill: #e6ffe6; stroke: #00cc00; stroke-width: 2; }
      .cache { fill: #f0e6ff; stroke: #6600cc; stroke-width: 2; }
      .arrow { stroke: #333; stroke-width: 2; fill: none; marker-end: url(#arrowhead); }
    </style>
    <marker id="arrowhead" markerWidth="8" markerHeight="5" refX="8" refY="2.5" orient="auto">
      <polygon points="0 0, 8 2.5, 0 5" fill="#333" />
    </marker>
  </defs>
  
  <!-- Title -->
  <text x="450" y="30" class="title">Deep Learning Cache Prediction System Architecture</text>
  
  <!-- Data Input Layer -->
  <rect x="50" y="70" width="140" height="80" class="input" />
  <text x="120" y="90" class="subtitle">User Access Logs</text>
  <text x="120" y="105" class="small-text">• Geographic Coordinates</text>
  <text x="120" y="118" class="small-text">• Zoom Level</text>
  <text x="120" y="131" class="small-text">• Access Time</text>
  <text x="120" y="144" class="small-text">• Session Information</text>
  
  <rect x="50" y="180" width="140" height="40" class="input" />
  <text x="120" y="200" class="subtitle">System Performance Metrics</text>
  <text x="120" y="215" class="small-text">Response time, concurrency, etc.</text>
  
  <!-- Data Collection Module -->
  <rect x="250" y="110" width="120" height="60" class="processing" />
  <text x="310" y="135" class="subtitle">Data Collection Module</text>
  <text x="310" y="150" class="small-text">Real-time Data Collection</text>
  <text x="310" y="165" class="small-text">Data Formatting</text>
  
  <!-- Feature Engineering Module -->
  <rect x="420" y="70" width="120" height="120" class="processing" />
  <text x="480" y="90" class="subtitle">Feature Engineering Module</text>
  <text x="480" y="110" class="small-text">Data Cleaning</text>
  <text x="480" y="125" class="small-text">Feature Extraction</text>
  <text x="480" y="140" class="small-text">Time Series Feature Construction</text>
  <text x="480" y="155" class="small-text">Feature Normalization</text>
  <text x="480" y="175" class="subtitle">32-dimensional Feature Vector</text>
  
  <!-- LSTM Model Training Module -->
  <rect x="600" y="70" width="180" height="120" class="model" />
  <text x="690" y="90" class="subtitle">LSTM Neural Network</text>
  <text x="690" y="105" class="subtitle">Model Training Module</text>
  <text x="650" y="125" class="small-text">Encoder (3-layer LSTM)</text>
  <text x="730" y="125" class="small-text">Attention Mechanism</text>
  <text x="650" y="140" class="small-text">128 neurons/layer</text>
  <text x="730" y="140" class="small-text">Time Weight Allocation</text>
  <text x="690" y="160" class="small-text">Decoder (Hotspot Probability Output)</text>
  <text x="690" y="175" class="small-text">Dropout Anti-overfitting</text>
  
  <!-- Historical Data -->
  <rect x="600" y="220" width="120" height="40" class="input" />
  <text x="660" y="240" class="subtitle">Historical Cache Data</text>
  <text x="660" y="255" class="small-text">30-day Access History</text>
  
  <!-- Prediction Service Module -->
  <rect x="300" y="300" width="140" height="80" class="output" />
  <text x="370" y="320" class="subtitle">Prediction Service Module</text>
  <text x="370" y="335" class="small-text">Hotspot Area Prediction API</text>
  <text x="370" y="350" class="small-text">Cache Strategy Generation</text>
  <text x="370" y="365" class="small-text">Real-time Scheduling Commands</text>
  
  <!-- Cache Scheduler -->
  <rect x="500" y="420" width="160" height="80" class="cache" />
  <text x="580" y="440" class="subtitle">Cache Scheduler</text>
  <text x="580" y="455" class="small-text">Intelligent Resource Allocation</text>
  <text x="580" y="470" class="small-text">Load Balancing Mechanism</text>
  <text x="580" y="485" class="small-text">Dynamic Strategy Adjustment</text>
  
  <!-- Output Strategies -->
  <rect x="50" y="540" width="140" height="60" class="cache" />
  <text x="120" y="560" class="subtitle">Dynamic Cache Range</text>
  <text x="120" y="575" class="subtitle">Adjustment</text>
  <text x="120" y="590" class="small-text">Hotspot Area Expansion</text>
  
  <rect x="220" y="540" width="140" height="60" class="cache" />
  <text x="290" y="560" class="subtitle">Tiered Cache Strategy</text>
  <text x="290" y="575" class="small-text">High-Medium-Low Priority</text>
  <text x="290" y="590" class="small-text">Differentiated Processing</text>
  
  <rect x="390" y="540" width="140" height="60" class="cache" />
  <text x="460" y="560" class="subtitle">Preloading Optimization</text>
  <text x="460" y="575" class="small-text">Advance Caching</text>
  <text x="460" y="590" class="small-text">Predictive Loading</text>
  
  <!-- Connection Lines -->
  <!-- Data Input to Data Collection -->
  <line x1="190" y1="120" x2="250" y2="140" class="arrow" />
  <line x1="190" y1="200" x2="250" y2="150" class="arrow" />
  
  <!-- Data Collection to Feature Engineering -->
  <line x1="370" y1="140" x2="420" y2="130" class="arrow" />
  
  <!-- Feature Engineering to LSTM Model -->
  <line x1="540" y1="130" x2="600" y2="130" class="arrow" />
  
  <!-- Historical Data to LSTM Model -->
  <line x1="660" y1="220" x2="660" y2="190" class="arrow" />
  
  <!-- LSTM Model to Prediction Service -->
  <line x1="600" y1="160" x2="440" y2="300" class="arrow" />
  
  <!-- Prediction Service to Cache Scheduler -->
  <line x1="440" y1="340" x2="500" y2="460" class="arrow" />
  
  <!-- Cache Scheduler to Various Strategies -->
  <line x1="520" y1="500" x2="190" y2="540" class="arrow" />
  <line x1="560" y1="500" x2="290" y2="540" class="arrow" />
  <line x1="600" y1="500" x2="460" y2="540" class="arrow" />
  
</svg>