<?xml version="1.0" encoding="UTF-8"?>
<svg width="700" height="400" xmlns="http://www.w3.org/2000/svg">
  <defs>
    <style>
      .title { font-family: Arial, sans-serif; font-size: 16px; font-weight: bold; }
      .subtitle { font-family: Arial, sans-serif; font-size: 12px; font-weight: bold; }
      .text { font-family: Arial, sans-serif; font-size: 10px; }
      .server { fill: #e3f2fd; stroke: #1976d2; stroke-width: 2; }
      .client { fill: #fff3e0; stroke: #f57c00; stroke-width: 2; }
      .monitor { fill: #e8f5e8; stroke: #4caf50; stroke-width: 2; }
      .database { fill: #f3e5f5; stroke: #7b1fa2; stroke-width: 2; }
      .arrow { stroke: #666; stroke-width: 2; fill: none; marker-end: url(#arrowhead); }
    </style>
    <marker id="arrowhead" markerWidth="10" markerHeight="7" refX="10" refY="3.5" orient="auto">
      <polygon points="0 0, 10 3.5, 0 7" fill="#666" />
    </marker>
  </defs>
  
  <text x="350" y="25" class="title" text-anchor="middle">Experimental Environment Architecture</text>
  
  <!-- Load Balancer -->
  <rect x="300" y="50" width="100" height="40" class="server" rx="5"/>
  <text x="350" y="75" class="text" text-anchor="middle">Load Balancer</text>
  
  <!-- Web Server Cluster -->
  <g transform="translate(150, 120)">
    <text x="100" y="15" class="subtitle" text-anchor="middle">Web Server Cluster</text>
    <rect x="20" y="20" width="60" height="30" class="server" rx="3"/>
    <text x="50" y="40" class="text" text-anchor="middle">Web Server 1</text>
    <rect x="90" y="20" width="60" height="30" class="server" rx="3"/>
    <text x="120" y="40" class="text" text-anchor="middle">Web Server 2</text>
    <rect x="160" y="20" width="60" height="30" class="server" rx="3"/>
    <text x="190" y="40" class="text" text-anchor="middle">Web Server 3</text>
  </g>
  
  <!-- Application Server Cluster -->
  <g transform="translate(400, 120)">
    <text x="100" y="15" class="subtitle" text-anchor="middle">Application Server Cluster</text>
    <rect x="20" y="20" width="60" height="30" class="server" rx="3"/>
    <text x="50" y="40" class="text" text-anchor="middle">App Server 1</text>
    <rect x="90" y="20" width="60" height="30" class="server" rx="3"/>
    <text x="120" y="40" class="text" text-anchor="middle">App Server 2</text>
    <rect x="160" y="20" width="60" height="30" class="server" rx="3"/>
    <text x="190" y="40" class="text" text-anchor="middle">App Server 3</text>
  </g>
  
  <!-- Cache Server -->
  <rect x="200" y="220" width="80" height="40" class="server" rx="5"/>
  <text x="240" y="245" class="text" text-anchor="middle">Cache Server</text>
  
  <!-- Database Cluster -->
  <g transform="translate(320, 220)">
    <text x="70" y="15" class="subtitle" text-anchor="middle">Database Cluster</text>
    <rect x="20" y="20" width="50" height="30" class="database" rx="3"/>
    <text x="45" y="40" class="text" text-anchor="middle">Master DB</text>
    <rect x="80" y="20" width="50" height="30" class="database" rx="3"/>
    <text x="105" y="40" class="text" text-anchor="middle">Slave DB</text>
  </g>
  
  <!-- Test Clients -->
  <g transform="translate(50, 320)">
    <text x="100" y="15" class="subtitle" text-anchor="middle">Test Clients</text>
    <rect x="10" y="20" width="60" height="30" class="client" rx="3"/>
    <text x="40" y="40" class="text" text-anchor="middle">Performance Test</text>
    <rect x="80" y="20" width="60" height="30" class="client" rx="3"/>
    <text x="110" y="40" class="text" text-anchor="middle">Concurrency Test</text>
    <rect x="150" y="20" width="60" height="30" class="client" rx="3"/>
    <text x="180" y="40" class="text" text-anchor="middle">Stability Test</text>
  </g>
  
  <!-- Monitoring System -->
  <g transform="translate(450, 320)">
    <text x="100" y="15" class="subtitle" text-anchor="middle">Monitoring System</text>
    <rect x="10" y="20" width="60" height="30" class="monitor" rx="3"/>
    <text x="40" y="40" class="text" text-anchor="middle">Performance Monitor</text>
    <rect x="80" y="20" width="60" height="30" class="monitor" rx="3"/>
    <text x="110" y="40" class="text" text-anchor="middle">Log Analysis</text>
    <rect x="150" y="20" width="60" height="30" class="monitor" rx="3"/>
    <text x="180" y="40" class="text" text-anchor="middle">Resource Monitor</text>
  </g>
  
  <!-- Connections -->
  <line x1="350" y1="90" x2="250" y2="120" class="arrow"/>
  <line x1="350" y1="90" x2="500" y2="120" class="arrow"/>
  <line x1="250" y1="170" x2="240" y2="220" class="arrow"/>
  <line x1="500" y1="170" x2="370" y2="220" class="arrow"/>
  <line x1="130" y1="340" x2="300" y2="90" class="arrow"/>
  <line x1="550" y1="340" x2="400" y2="90" class="arrow"/>
</svg>