<?xml version="1.0" encoding="UTF-8"?>
<svg width="1000" height="650" xmlns="http://www.w3.org/2000/svg">
  <defs>
    <style>
      .title { font-family: Arial, sans-serif; font-size: 16px; font-weight: bold; text-anchor: middle; }
      .section-title { font-family: Arial, sans-serif; font-size: 14px; font-weight: bold; text-anchor: middle; }
      .subtitle { font-family: Arial, sans-serif; font-size: 11px; text-anchor: middle; }
      .small-text { font-family: Arial, sans-serif; font-size: 9px; text-anchor: middle; }
      .input { fill: #e6f3ff; stroke: #0066cc; stroke-width: 2; }
      .lstm { fill: #99ccff; stroke: #0066cc; stroke-width: 2; }
      .attention { fill: #ffcc99; stroke: #ff6600; stroke-width: 2; }
      .dense { fill: #99ff99; stroke: #00cc00; stroke-width: 2; }
      .output { fill: #ffccff; stroke: #cc00cc; stroke-width: 2; }
      .arrow { stroke: #333; stroke-width: 2; fill: none; marker-end: url(#arrowhead); }
    </style>
    <marker id="arrowhead" markerWidth="8" markerHeight="5" refX="8" refY="2.5" orient="auto">
      <polygon points="0 0, 8 2.5, 0 5" fill="#333" />
    </marker>
  </defs>
  
  <!-- Title -->
  <text x="500" y="30" class="title">LSTM Neural Network Model Structure</text>
  
  <!-- Input Layer Title -->
  <text x="80" y="70" class="section-title">Input Layer</text>
  <rect x="20" y="75" width="120" height="2" fill="#333" />
  
  <!-- Input Features -->
  <rect x="30" y="90" width="100" height="40" class="input" />
  <text x="80" y="105" class="subtitle">Timestamp</text>
  <text x="80" y="120" class="small-text">t1, t2, ..., tn</text>
  
  <rect x="30" y="140" width="100" height="40" class="input" />
  <text x="80" y="155" class="subtitle">Geographic Coordinates</text>
  <text x="80" y="170" class="small-text">lat, lng</text>
  
  <rect x="30" y="190" width="100" height="40" class="input" />
  <text x="80" y="205" class="subtitle">Zoom Level</text>
  <text x="80" y="220" class="small-text">zoom level</text>
  
  <rect x="30" y="240" width="100" height="40" class="input" />
  <text x="80" y="255" class="subtitle">Visit Frequency</text>
  <text x="80" y="270" class="small-text">visit count</text>
  
  <rect x="30" y="290" width="100" height="40" class="input" />
  <text x="80" y="305" class="subtitle">User Type</text>
  <text x="80" y="320" class="small-text">user type</text>
  
  <rect x="30" y="340" width="100" height="40" class="input" />
  <text x="80" y="355" class="subtitle">Device Info</text>
  <text x="80" y="370" class="small-text">device info</text>
  
  <!-- Encoder Title -->
  <text x="280" y="70" class="section-title">Encoder</text>
  <rect x="200" y="75" width="160" height="2" fill="#333" />
  
  <!-- LSTM Layers -->
  <rect x="220" y="90" width="120" height="60" class="lstm" />
  <text x="280" y="110" class="subtitle">LSTM Layer 1</text>
  <text x="280" y="125" class="small-text">128 Neurons</text>
  <text x="280" y="140" class="small-text">Dropout=0.2</text>
  
  <rect x="220" y="170" width="120" height="60" class="lstm" />
  <text x="280" y="190" class="subtitle">LSTM Layer 2</text>
  <text x="280" y="205" class="small-text">128 Neurons</text>
  <text x="280" y="220" class="small-text">Dropout=0.2</text>
  
  <rect x="220" y="250" width="120" height="60" class="lstm" />
  <text x="280" y="270" class="subtitle">LSTM Layer 3</text>
  <text x="280" y="285" class="small-text">128 Neurons</text>
  <text x="280" y="300" class="small-text">Dropout=0.2</text>
  
  <!-- Attention Mechanism Title -->
  <text x="500" y="70" class="section-title">Attention Mechanism</text>
  <rect x="420" y="75" width="160" height="2" fill="#333" />
  
  <!-- Attention Mechanism -->
  <rect x="430" y="120" width="140" height="50" class="attention" />
  <text x="500" y="140" class="subtitle">Attention Weight Calculation</text>
  <text x="500" y="155" class="small-text">α = softmax(score)</text>
  
  <rect x="430" y="190" width="140" height="50" class="attention" />
  <text x="500" y="210" class="subtitle">Context Vector</text>
  <text x="500" y="225" class="small-text">c = Σ(αi × hi)</text>
  
  <!-- Decoder Title -->
  <text x="720" y="70" class="section-title">Decoder</text>
  <rect x="640" y="75" width="160" height="2" fill="#333" />
  
  <!-- Dense Layers -->
  <rect x="660" y="110" width="120" height="50" class="dense" />
  <text x="720" y="130" class="subtitle">Dense Layer 1</text>
  <text x="720" y="145" class="small-text">256 Neurons</text>
  <text x="720" y="155" class="small-text">ReLU Activation</text>
  
  <rect x="660" y="180" width="120" height="50" class="dense" />
  <text x="720" y="200" class="subtitle">Dense Layer 2</text>
  <text x="720" y="215" class="small-text">128 Neurons</text>
  <text x="720" y="225" class="small-text">ReLU Activation</text>
  
  <rect x="660" y="250" width="120" height="40" class="dense" />
  <text x="720" y="270" class="subtitle">Output Layer</text>
  <text x="720" y="285" class="small-text">Softmax Activation</text>
  
  <!-- Output Layer Title -->
  <text x="870" y="70" class="section-title">Output Layer</text>
  <rect x="820" y="75" width="100" height="2" fill="#333" />
  
  <!-- Output Results -->
  <rect x="830" y="120" width="120" height="50" class="output" />
  <text x="890" y="140" class="subtitle">Hotspot Probability Distribution</text>
  <text x="890" y="155" class="small-text">Grid Matrix</text>
  
  <rect x="830" y="190" width="120" height="40" class="output" />
  <text x="890" y="210" class="subtitle">Cache Priority</text>
  <text x="890" y="225" class="small-text">Priority Score</text>
  
  <rect x="830" y="250" width="120" height="40" class="output" />
  <text x="890" y="270" class="subtitle">Prediction Confidence</text>
  <text x="890" y="285" class="small-text">Confidence</text>
  
  <!-- Connection Lines -->
  <!-- Input Layer to LSTM Layer 1 -->
  <line x1="130" y1="110" x2="220" y2="120" class="arrow" />
  <line x1="130" y1="160" x2="220" y2="120" class="arrow" />
  <line x1="130" y1="210" x2="220" y2="120" class="arrow" />
  <line x1="130" y1="260" x2="220" y2="120" class="arrow" />
  <line x1="130" y1="310" x2="220" y2="120" class="arrow" />
  <line x1="130" y1="360" x2="220" y2="120" class="arrow" />
  
  <!-- LSTM Layer Connections -->
  <line x1="280" y1="150" x2="280" y2="170" class="arrow" />
  <line x1="280" y1="230" x2="280" y2="250" class="arrow" />
  
  <!-- LSTM Layers to Attention Mechanism -->
  <line x1="340" y1="120" x2="430" y2="145" class="arrow" />
  <line x1="340" y1="200" x2="430" y2="145" class="arrow" />
  <line x1="340" y1="280" x2="430" y2="145" class="arrow" />
  
  <!-- Attention Mechanism Internal Connection -->
  <line x1="500" y1="170" x2="500" y2="190" class="arrow" />
  
  <!-- Attention Mechanism to Decoder -->
  <line x1="570" y1="215" x2="660" y2="135" class="arrow" />
  
  <!-- Decoder Internal Connections -->
  <line x1="720" y1="160" x2="720" y2="180" class="arrow" />
  <line x1="720" y1="230" x2="720" y2="250" class="arrow" />
  
  <!-- Decoder to Output Layer -->
  <line x1="780" y1="270" x2="830" y2="145" class="arrow" />
  <line x1="780" y1="270" x2="830" y2="210" class="arrow" />
  <line x1="780" y1="270" x2="830" y2="270" class="arrow" />
  
  <!-- Model Parameters Description -->
  <rect x="50" y="450" width="900" height="150" fill="#f0f8ff" stroke="#333" stroke-width="1" />
  <text x="500" y="475" class="section-title">Model Parameters and Training Strategy</text>
  
  <text x="500" y="505" class="subtitle">• Input Feature Dimension: 32-dimensional vector (timestamp, coordinates, zoom level, visit frequency, etc.)</text>
  <text x="500" y="525" class="subtitle">• LSTM Hidden Layers: 3 layers, 128 neurons per layer, bidirectional LSTM structure</text>
  <text x="500" y="545" class="subtitle">• Attention Mechanism: Multi-head attention, automatic identification of key time periods and features</text>
  <text x="500" y="565" class="subtitle">• Training Strategy: Sliding time window, 30-day historical data to predict 7-day future hotspots</text>
  <text x="500" y="585" class="subtitle">• Optimization Algorithm: Adam optimizer, learning rate 0.001, batch size 64, anti-overfitting Dropout=0.2</text>
  
</svg>