<?xml version="1.0" encoding="UTF-8"?>
<svg width="820" height="400" xmlns="http://www.w3.org/2000/svg">
  <defs>
    <style>
      .title { font-family: Arial, sans-serif; font-size: 16px; font-weight: bold; }
      .text { font-family: Arial, sans-serif; font-size: 11px; }
      .box { fill: #e3f2fd; stroke: #1976d2; stroke-width: 2; }
      .decision { fill: #fff3e0; stroke: #f57c00; stroke-width: 2; }
      .process { fill: #e8f5e8; stroke: #4caf50; stroke-width: 2; }
      .skip { fill: #f5f5f5; stroke: #9e9e9e; stroke-width: 2; }
      .arrow { stroke: #666; stroke-width: 2; fill: none; marker-end: url(#arrowhead); }
    </style>
    <marker id="arrowhead" markerWidth="8" markerHeight="5" refX="8" refY="2.5" orient="auto">
      <polygon points="0 0, 8 2.5, 0 5" fill="#666" />
    </marker>
  </defs>
  
  <text x="400" y="30" class="title" text-anchor="middle">Martin Auto-Publishing Flow</text>
  
  <!-- Flow elements -->
  <rect x="50" y="60" width="120" height="40" class="box" rx="5"/>
  <text x="110" y="85" class="text" text-anchor="middle">Data Import Complete</text>
  
  <rect x="220" y="60" width="120" height="40" class="process" rx="5"/>
  <text x="280" y="85" class="text" text-anchor="middle">Trigger NOTIFY Event</text>
  
  <rect x="390" y="60" width="120" height="40" class="process" rx="5"/>
  <text x="450" y="85" class="text" text-anchor="middle">Martin Listener</text>
  
  <rect x="560" y="60" width="120" height="40" class="process" rx="5"/>
  <text x="620" y="85" class="text" text-anchor="middle">Table Name Rule Check</text>
  
  <polygon points="580,140 660,140 680,170 660,200 580,200 560,170" class="decision"/>
  <text x="620" y="175" class="text" text-anchor="middle">Matches vector_ prefix</text>
  
  <rect x="390" y="240" width="120" height="40" class="process" rx="5"/>
  <text x="450" y="265" class="text" text-anchor="middle">Auto Generate Config</text>
  
  <rect x="220" y="240" width="120" height="40" class="process" rx="5"/>
  <text x="280" y="265" class="text" text-anchor="middle">Create Spatial Index</text>
  
  <rect x="50" y="240" width="120" height="40" class="process" rx="5"/>
  <text x="110" y="265" class="text" text-anchor="middle">Set Tile Parameters</text>
  
  <rect x="50" y="320" width="120" height="40" class="process" rx="5"/>
  <text x="110" y="345" class="text" text-anchor="middle">Start MVT Service</text>
  
  <rect x="220" y="320" width="120" height="40" class="process" rx="5"/>
  <text x="280" y="345" class="text" text-anchor="middle">Service Health Check</text>
  
  <rect x="390" y="320" width="120" height="40" class="process" rx="5"/>
  <text x="450" y="345" class="text" text-anchor="middle">Update Service Registry</text>
  
  <rect x="560" y="320" width="120" height="40" class="box" rx="5"/>
  <text x="620" y="345" class="text" text-anchor="middle">Service Available</text>
  
  <rect x="720" y="150" width="100" height="40" class="skip" rx="5"/>
  <text x="770" y="175" class="text" text-anchor="middle">Skip Processing</text>
  
  <!-- Arrows -->
  <line x1="170" y1="80" x2="220" y2="80" class="arrow"/>
  <line x1="340" y1="80" x2="390" y2="80" class="arrow"/>
  <line x1="510" y1="80" x2="560" y2="80" class="arrow"/>
  <line x1="620" y1="100" x2="620" y2="140" class="arrow"/>
  <path d="M 620 200 L 620 260 L 510 260" class="arrow"/>
  <line x1="390" y1="260" x2="340" y2="260" class="arrow"/>
  <line x1="220" y1="260" x2="170" y2="260" class="arrow"/>
  <line x1="110" y1="280" x2="110" y2="320" class="arrow"/>
  <line x1="170" y1="340" x2="220" y2="340" class="arrow"/>
  <line x1="340" y1="340" x2="390" y2="340" class="arrow"/>
  <line x1="510" y1="340" x2="560" y2="340" class="arrow"/>
  <line x1="680" y1="170" x2="720" y2="170" class="arrow"/>
  
  <!-- Labels -->
  <text x="600" y="230" class="text">Yes</text>
  <text x="690" y="165" class="text">No</text>
</svg>