<?xml version="1.0" encoding="UTF-8"?>
<svg width="800" height="600" xmlns="http://www.w3.org/2000/svg">
  <defs>
    <style>
      .title { font-family: Arial, sans-serif; font-size: 14px; font-weight: bold; text-anchor: middle; }
      .subtitle { font-family: Arial, sans-serif; font-size: 11px; text-anchor: middle; }
      .box { fill: #f0f8ff; stroke: #333; stroke-width: 2; }
      .cache1 { fill: #ff9999; stroke: #cc0000; stroke-width: 2; }
      .cache2 { fill: #99ccff; stroke: #0066cc; stroke-width: 2; }
      .cache3 { fill: #99ff99; stroke: #00cc00; stroke-width: 2; }
      .manager { fill: #ffcc99; stroke: #ff6600; stroke-width: 2; }
      .arrow { stroke: #333; stroke-width: 2; fill: none; marker-end: url(#arrowhead); }
    </style>
    <marker id="arrowhead" markerWidth="8" markerHeight="5" refX="8" refY="2.5" orient="auto">
      <polygon points="0 0, 8 2.5, 0 5" fill="#333" />
    </marker>
  </defs>
  
  <!-- Title -->
  <text x="400" y="30" class="title">Multi-level Cache Architecture</text>
  
  <!-- User Request -->
  <rect x="350" y="50" width="100" height="40" class="box" />
  <text x="400" y="75" class="subtitle">User Request</text>
  
  <!-- Load Balancer -->
  <rect x="330" y="120" width="140" height="40" class="manager" />
  <text x="400" y="145" class="subtitle">Load Balancer</text>
  
  <!-- Cache Levels -->
  <!-- Level 1 Cache Redis -->
  <rect x="50" y="200" width="200" height="80" class="cache1" />
  <text x="150" y="220" class="subtitle">L1 Cache (Redis)</text>
  <text x="150" y="240" class="subtitle">Memory Cache</text>
  <text x="150" y="255" class="subtitle">Response Time: 5-10ms</text>
  <text x="150" y="270" class="subtitle">Hot Tile Data</text>
  
  <!-- Level 2 Cache Local Disk -->
  <rect x="300" y="200" width="200" height="80" class="cache2" />
  <text x="400" y="220" class="subtitle">L2 Cache (SSD)</text>
  <text x="400" y="240" class="subtitle">Local Disk Cache</text>
  <text x="400" y="255" class="subtitle">Response Time: 50-100ms</text>
  <text x="400" y="270" class="subtitle">Frequently Used Tiles</text>
  
  <!-- Level 3 Cache Distributed File System -->
  <rect x="550" y="200" width="200" height="80" class="cache3" />
  <text x="650" y="220" class="subtitle">L3 Cache (DFS)</text>
  <text x="650" y="240" class="subtitle">Distributed File System</text>
  <text x="650" y="255" class="subtitle">Response Time: 200-500ms</text>
  <text x="650" y="270" class="subtitle">Cold Data Tiles</text>
  
  <!-- Cache Manager -->
  <rect x="320" y="320" width="160" height="60" class="manager" />
  <text x="400" y="340" class="subtitle">Cache Manager</text>
  <text x="400" y="355" class="subtitle">Intelligent Scheduling Strategy</text>
  <text x="400" y="370" class="subtitle">LRU + Hotspot Detection + Preloading</text>
  
  <!-- Service Layer -->
  <rect x="440" y="420" width="120" height="50" class="box" />
  <text x="500" y="440" class="subtitle">Martin Tile Service</text>
  <text x="500" y="455" class="subtitle">MVT Vector Tiles</text>
  
  <rect x="580" y="420" width="120" height="50" class="box" />
  <text x="640" y="440" class="subtitle">GeoServer Service</text>
  <text x="640" y="455" class="subtitle">WMS Raster Tiles</text>
  
  <!-- Connection Lines -->
  <!-- User to Load Balancer -->
  <line x1="400" y1="90" x2="400" y2="120" class="arrow" />
  
  <!-- Load Balancer to Cache Levels -->
  <line x1="380" y1="160" x2="150" y2="200" class="arrow" />
  <line x1="400" y1="160" x2="400" y2="200" class="arrow" />
  <line x1="420" y1="160" x2="650" y2="200" class="arrow" />
  
  <!-- Cache Manager to Cache Levels -->
  <line x1="350" y1="320" x2="200" y2="280" class="arrow" />
  <line x1="400" y1="320" x2="400" y2="280" class="arrow" />
  <line x1="450" y1="320" x2="600" y2="280" class="arrow" />
  
  <!-- Service Layer to L3 Cache -->
  <line x1="560" y1="420" x2="600" y2="280" class="arrow" />
  <line x1="580" y1="420" x2="620" y2="280" class="arrow" />
  
</svg>