<svg width="600" height="500" xmlns="http://www.w3.org/2000/svg">
  <!-- 背景 -->
  <rect width="600" height="500" fill="#f8f9fa"/>
  
  <!-- 标题 -->
  <text x="300" y="30" text-anchor="middle" font-size="18" font-weight="bold" fill="#333">分层缓存架构图</text>
  
  <!-- 用户层 -->
  <rect x="50" y="60" width="500" height="50" fill="#e3f2fd" stroke="#1976d2" stroke-width="2" rx="5"/>
  <text x="300" y="85" text-anchor="middle" font-size="14" font-weight="bold" fill="#1976d2">用户访问层</text>
  <text x="300" y="105" text-anchor="middle" font-size="12" fill="#1976d2">Web浏览器 / 移动应用</text>
  
  <!-- 前端缓存层 -->
  <rect x="50" y="140" width="500" height="80" fill="#e8f5e8" stroke="#388e3c" stroke-width="2" rx="5"/>
  <text x="300" y="165" text-anchor="middle" font-size="14" font-weight="bold" fill="#388e3c">前端缓存层 (IndexDB)</text>
  <text x="120" y="190" font-size="12" fill="#388e3c">• 热点瓦片缓存</text>
  <text x="320" y="190" font-size="12" fill="#388e3c">• 预测性加载</text>
  <text x="120" y="210" font-size="12" fill="#388e3c">• LRU淘汰算法</text>
  <text x="320" y="210" font-size="12" fill="#388e3c">• 离线地图支持</text>
  
  <!-- 服务器缓存层 -->
  <rect x="50" y="250" width="500" height="80" fill="#fff3e0" stroke="#f57c00" stroke-width="2" rx="5"/>
  <text x="300" y="275" text-anchor="middle" font-size="14" font-weight="bold" fill="#f57c00">服务器缓存层 (Redis)</text>
  <text x="120" y="300" font-size="12" fill="#f57c00">• 内存快速缓存</text>
  <text x="320" y="300" font-size="12" fill="#f57c00">• 热点数据存储</text>
  <text x="120" y="320" font-size="12" fill="#f57c00">• 集群共享缓存</text>
  <text x="320" y="320" font-size="12" fill="#f57c00">• 智能过期策略</text>
  
  <!-- 深度学习预测层 -->
  <rect x="50" y="360" width="500" height="80" fill="#fce4ec" stroke="#c2185b" stroke-width="2" rx="5"/>
  <text x="300" y="385" text-anchor="middle" font-size="14" font-weight="bold" fill="#c2185b">深度学习预测层 (LSTM)</text>
  <text x="120" y="410" font-size="12" fill="#c2185b">• 用户行为分析</text>
  <text x="320" y="410" font-size="12" fill="#c2185b">• 热点区域预测</text>
  <text x="120" y="430" font-size="12" fill="#c2185b">• 访问模式识别</text>
  <text x="320" y="430" font-size="12" fill="#c2185b">• 智能预加载</text>
  
  <!-- 数据存储层 -->
  <rect x="50" y="460" width="500" height="30" fill="#f3e5f5" stroke="#7b1fa2" stroke-width="2" rx="5"/>
  <text x="300" y="480" text-anchor="middle" font-size="14" font-weight="bold" fill="#7b1fa2">数据存储层 (PostgreSQL + PostGIS)</text>
  
  <!-- 连接线 -->
  <line x1="300" y1="110" x2="300" y2="125" stroke="#666" stroke-width="2" marker-end="url(#arrowhead)"/>
  <line x1="300" y1="220" x2="300" y2="235" stroke="#666" stroke-width="2" marker-end="url(#arrowhead)"/>
  <line x1="300" y1="330" x2="300" y2="345" stroke="#666" stroke-width="2" marker-end="url(#arrowhead)"/>
  <line x1="300" y1="440" x2="300" y2="445" stroke="#666" stroke-width="2" marker-end="url(#arrowhead)"/>
  
  <!-- 反馈箭头 -->
  <path d="M 70 400 Q 20 350 70 300" stroke="#c2185b" stroke-width="2" fill="none" marker-end="url(#arrowhead2)"/>
  <text x="15" y="350" font-size="10" fill="#c2185b">预测反馈</text>
  
  <!-- 箭头标记 -->
  <defs>
    <marker id="arrowhead" markerWidth="8" markerHeight="5" refX="0" refY="2.5" orient="auto">
      <polygon points="0 0, 8 2.5, 0 5" fill="#666"/>
    </marker>
    <marker id="arrowhead2" markerWidth="8" markerHeight="5" refX="0" refY="2.5" orient="auto">
      <polygon points="0 0, 8 2.5, 0 5" fill="#c2185b"/>
    </marker>
  </defs>
</svg> 