<?xml version="1.0" encoding="UTF-8"?>
<svg width="500" height="600" xmlns="http://www.w3.org/2000/svg">
  <defs>
    <style>
      .title { font-family: Arial, sans-serif; font-size: 16px; font-weight: bold; }
      .text { font-family: Arial, sans-serif; font-size: 11px; }
      .box { fill: #e3f2fd; stroke: #1976d2; stroke-width: 2; }
      .decision { fill: #fff3e0; stroke: #f57c00; stroke-width: 2; }
      .process { fill: #e8f5e8; stroke: #4caf50; stroke-width: 2; }
      .error { fill: #ffcdd2; stroke: #f44336; stroke-width: 2; }
      .arrow { stroke: #666; stroke-width: 2; fill: none; }
    </style>
  </defs>
  
  <text x="250" y="30" class="title" text-anchor="middle">DXF样式提取算法流程</text>
  
  <rect x="175" y="50" width="150" height="30" class="box" rx="15"/>
  <text x="250" y="70" class="text" text-anchor="middle">DXF文件上传</text>
  
  <rect x="175" y="100" width="150" height="30" class="process" rx="5"/>
  <text x="250" y="120" class="text" text-anchor="middle">文件格式验证</text>
  
  <polygon points="225,150 275,150 300,175 275,200 225,200 200,175" class="decision"/>
  <text x="250" y="180" class="text" text-anchor="middle">文件有效</text>
  
  <rect x="350" y="160" width="100" height="30" class="error" rx="5"/>
  <text x="400" y="180" class="text" text-anchor="middle">返回错误</text>
  
  <rect x="175" y="220" width="150" height="30" class="process" rx="5"/>
  <text x="250" y="240" class="text" text-anchor="middle">GDAL几何解析</text>
  
  <rect x="175" y="270" width="150" height="30" class="process" rx="5"/>
  <text x="250" y="290" class="text" text-anchor="middle">ezdxf样式解析</text>
  
  <rect x="175" y="320" width="150" height="30" class="process" rx="5"/>
  <text x="250" y="340" class="text" text-anchor="middle">图层信息提取</text>
  
  <rect x="175" y="370" width="150" height="30" class="process" rx="5"/>
  <text x="250" y="390" class="text" text-anchor="middle">颜色索引转换</text>
  
  <rect x="175" y="420" width="150" height="30" class="process" rx="5"/>
  <text x="250" y="440" class="text" text-anchor="middle">线型样式处理</text>
  
  <rect x="175" y="470" width="150" height="30" class="process" rx="5"/>
  <text x="250" y="490" class="text" text-anchor="middle">坐标系识别</text>
  
  <rect x="175" y="520" width="150" height="30" class="box" rx="15"/>
  <text x="250" y="540" class="text" text-anchor="middle">完成处理</text>
  
  <!-- Arrows -->
  <line x1="250" y1="80" x2="250" y2="100" class="arrow" marker-end="url(#arrowhead)"/>
  <line x1="250" y1="130" x2="250" y2="150" class="arrow" marker-end="url(#arrowhead)"/>
  <line x1="300" y1="175" x2="350" y2="175" class="arrow" marker-end="url(#arrowhead)"/>
  <line x1="250" y1="200" x2="250" y2="220" class="arrow" marker-end="url(#arrowhead)"/>
  <line x1="250" y1="250" x2="250" y2="270" class="arrow" marker-end="url(#arrowhead)"/>
  <line x1="250" y1="300" x2="250" y2="320" class="arrow" marker-end="url(#arrowhead)"/>
  <line x1="250" y1="350" x2="250" y2="370" class="arrow" marker-end="url(#arrowhead)"/>
  <line x1="250" y1="400" x2="250" y2="420" class="arrow" marker-end="url(#arrowhead)"/>
  <line x1="250" y1="450" x2="250" y2="470" class="arrow" marker-end="url(#arrowhead)"/>
  <line x1="250" y1="500" x2="250" y2="520" class="arrow" marker-end="url(#arrowhead)"/>
  
  <text x="320" y="170" class="text">否</text>
  <text x="230" y="215" class="text">是</text>
  
  <marker id="arrowhead" markerWidth="5" markerHeight="3.5" refX="5" refY="1.75" orient="auto">
    <polygon points="0 0, 5 1.75, 0 3.5" fill="#666" />
  </marker>
</svg> 