<?xml version="1.0" encoding="UTF-8"?>
<svg width="800" height="500" xmlns="http://www.w3.org/2000/svg">
  <defs>
    <style>
      .title { font-family: Arial, sans-serif; font-size: 18px; font-weight: bold; }
      .phase-title { font-family: Arial, sans-serif; font-size: 14px; font-weight: bold; }
      .text { font-family: Arial, sans-serif; font-size: 11px; }
      .short-term { fill: #e8f5e8; stroke: #4caf50; stroke-width: 2; }
      .medium-term { fill: #e3f2fd; stroke: #2196f3; stroke-width: 2; }
      .long-term { fill: #f3e5f5; stroke: #9c27b0; stroke-width: 2; }
      .timeline { stroke: #666; stroke-width: 4; }
      .milestone { fill: #ff9800; stroke: #e65100; stroke-width: 2; }
    </style>
  </defs>
  
  <text x="400" y="30" class="title" text-anchor="middle">未来技术发展路线图</text>
  
  <!-- Timeline -->
  <line x1="100" y1="80" x2="700" y2="80" class="timeline"/>
  
  <!-- Timeline markers -->
  <circle cx="200" cy="80" r="10" class="milestone"/>
  <circle cx="400" cy="80" r="10" class="milestone"/>
  <circle cx="600" cy="80" r="10" class="milestone"/>
  
  <!-- Time labels -->
  <text x="200" y="110" class="phase-title" text-anchor="middle">1年内</text>
  <text x="400" y="110" class="phase-title" text-anchor="middle">2-3年</text>
  <text x="600" y="110" class="phase-title" text-anchor="middle">3-5年</text>
  
  <!-- Short-term goals -->
  <g transform="translate(100, 130)">
    <rect x="0" y="0" width="200" height="30" class="short-term" rx="5"/>
    <text x="100" y="20" class="phase-title" text-anchor="middle">短期目标</text>
    
    <rect x="10" y="40" width="80" height="60" class="short-term" rx="3"/>
    <text x="50" y="55" class="text" text-anchor="middle" font-weight="bold">AI深度集成</text>
    <text x="50" y="70" class="text" text-anchor="middle">Transformer模型</text>
    <text x="50" y="85" class="text" text-anchor="middle">智能数据分类</text>
    
    <rect x="110" y="40" width="80" height="60" class="short-term" rx="3"/>
    <text x="150" y="55" class="text" text-anchor="middle" font-weight="bold">边缘计算</text>
    <text x="150" y="70" class="text" text-anchor="middle">边缘节点部署</text>
    <text x="150" y="85" class="text" text-anchor="middle">分布式缓存</text>
  </g>
  
  <!-- Medium-term goals -->
  <g transform="translate(300, 130)">
    <rect x="0" y="0" width="200" height="30" class="medium-term" rx="5"/>
    <text x="100" y="20" class="phase-title" text-anchor="middle">中期目标</text>
    
    <rect x="10" y="40" width="80" height="60" class="medium-term" rx="3"/>
    <text x="50" y="55" class="text" text-anchor="middle" font-weight="bold">时空数据</text>
    <text x="50" y="70" class="text" text-anchor="middle">四维时空系统</text>
    <text x="50" y="85" class="text" text-anchor="middle">动态可视化</text>
    
    <rect x="110" y="40" width="80" height="60" class="medium-term" rx="3"/>
    <text x="150" y="55" class="text" text-anchor="middle" font-weight="bold">云原生</text>
    <text x="150" y="70" class="text" text-anchor="middle">微服务架构</text>
    <text x="150" y="85" class="text" text-anchor="middle">容器化部署</text>
  </g>
  
  <!-- Long-term goals -->
  <g transform="translate(500, 130)">
    <rect x="0" y="0" width="200" height="30" class="long-term" rx="5"/>
    <text x="100" y="20" class="phase-title" text-anchor="middle">长期目标</text>
    
    <rect x="10" y="40" width="80" height="60" class="long-term" rx="3"/>
    <text x="50" y="55" class="text" text-anchor="middle" font-weight="bold">增强现实</text>
    <text x="50" y="70" class="text" text-anchor="middle">AR/VR融合</text>
    <text x="50" y="85" class="text" text-anchor="middle">沉浸式体验</text>
    
    <rect x="110" y="40" width="80" height="60" class="long-term" rx="3"/>
    <text x="150" y="55" class="text" text-anchor="middle" font-weight="bold">智能化</text>
    <text x="150" y="70" class="text" text-anchor="middle">全自动处理</text>
    <text x="150" y="85" class="text" text-anchor="middle">认知型GIS</text>
  </g>
  
  <!-- Technology foundation -->
  <g transform="translate(150, 280)">
    <text x="250" y="20" class="phase-title" text-anchor="middle">技术基础支撑</text>
    
    <rect x="0" y="40" width="100" height="40" class="short-term" rx="3"/>
    <text x="50" y="65" class="text" text-anchor="middle">机器学习/深度学习</text>
    
    <rect x="120" y="40" width="100" height="40" class="medium-term" rx="3"/>
    <text x="170" y="65" class="text" text-anchor="middle">云计算/边缘计算</text>
    
    <rect x="240" y="40" width="100" height="40" class="long-term" rx="3"/>
    <text x="290" y="65" class="text" text-anchor="middle">5G/6G/物联网</text>
    
    <rect x="360" y="40" width="100" height="40" class="milestone" rx="3"/>
    <text x="410" y="65" class="text" text-anchor="middle">量子计算/区块链</text>
  </g>
  
  <!-- Application scenarios -->
  <g transform="translate(200, 380)">
    <text x="200" y="20" class="phase-title" text-anchor="middle">应用场景展望</text>
    
    <rect x="0" y="40" width="90" height="30" class="short-term" rx="3"/>
    <text x="45" y="59" class="text" text-anchor="middle">智慧城市</text>
    
    <rect x="110" y="40" width="90" height="30" class="medium-term" rx="3"/>
    <text x="155" y="59" class="text" text-anchor="middle">数字地球</text>
    
    <rect x="220" y="40" width="90" height="30" class="long-term" rx="3"/>
    <text x="265" y="59" class="text" text-anchor="middle">元宇宙地理</text>
    
    <rect x="330" y="40" width="90" height="30" class="milestone" rx="3"/>
    <text x="375" y="59" class="text" text-anchor="middle">认知地理</text>
  </g>
</svg> 