<?xml version="1.0" encoding="UTF-8"?>
<svg width="600" height="400" xmlns="http://www.w3.org/2000/svg">
  <defs>
    <style>
      .title { font-family: Arial, sans-serif; font-size: 16px; font-weight: bold; }
      .text { font-family: Arial, sans-serif; font-size: 12px; }
      .axis { stroke: #333; stroke-width: 2; fill: none; }
      .wms-bar { fill: #ff5722; }
      .mvt-bar { fill: #4caf50; }
      .legend { font-family: Arial, sans-serif; font-size: 11px; }
    </style>
  </defs>
  
  <text x="300" y="30" class="title" text-anchor="middle">MVT vs WMS服务性能对比</text>
  
  <!-- Chart area -->
  <g transform="translate(80, 60)">
    <!-- Axes -->
    <line x1="0" y1="300" x2="450" y2="300" class="axis"/>
    <line x1="0" y1="0" x2="0" y2="300" class="axis"/>
    
    <!-- Y-axis labels -->
    <text x="-10" y="305" class="text" text-anchor="end">0</text>
    <text x="-10" y="255" class="text" text-anchor="end">100</text>
    <text x="-10" y="205" class="text" text-anchor="end">200</text>
    <text x="-10" y="155" class="text" text-anchor="end">300</text>
    <text x="-10" y="105" class="text" text-anchor="end">400</text>
    <text x="-10" y="55" class="text" text-anchor="end">500</text>
    
    <!-- Y-axis title -->
    <text x="-50" y="150" class="text" text-anchor="middle" transform="rotate(-90, -50, 150)">响应时间 (ms)</text>
    
    <!-- X-axis labels -->
    <text x="45" y="320" class="text" text-anchor="middle">10用户</text>
    <text x="135" y="320" class="text" text-anchor="middle">50用户</text>
    <text x="225" y="320" class="text" text-anchor="middle">100用户</text>
    <text x="315" y="320" class="text" text-anchor="middle">200用户</text>
    <text x="405" y="320" class="text" text-anchor="middle">500用户</text>
    
    <!-- WMS bars -->
    <rect x="20" y="276" width="25" height="24" class="wms-bar"/>   <!-- 120ms -->
    <rect x="110" y="271" width="25" height="29" class="wms-bar"/>  <!-- 145ms -->
    <rect x="200" y="262" width="25" height="38" class="wms-bar"/>  <!-- 189ms -->
    <rect x="290" y="247" width="25" height="53" class="wms-bar"/>  <!-- 267ms -->
    <rect x="380" y="209" width="25" height="91" class="wms-bar"/>  <!-- 456ms -->
    
    <!-- MVT bars -->
    <rect x="50" y="282" width="25" height="18" class="mvt-bar"/>   <!-- 89ms -->
    <rect x="140" y="280" width="25" height="20" class="mvt-bar"/>  <!-- 98ms -->
    <rect x="230" y="275" width="25" height="25" class="mvt-bar"/>  <!-- 125ms -->
    <rect x="320" y="269" width="25" height="31" class="mvt-bar"/>  <!-- 156ms -->
    <rect x="410" y="253" width="25" height="47" class="mvt-bar"/>  <!-- 234ms -->
    
    <!-- Value labels -->
    <text x="32" y="270" class="text" text-anchor="middle" font-size="10px">120</text>
    <text x="122" y="265" class="text" text-anchor="middle" font-size="10px">145</text>
    <text x="212" y="256" class="text" text-anchor="middle" font-size="10px">189</text>
    <text x="302" y="241" class="text" text-anchor="middle" font-size="10px">267</text>
    <text x="392" y="203" class="text" text-anchor="middle" font-size="10px">456</text>
    
    <text x="62" y="276" class="text" text-anchor="middle" font-size="10px">89</text>
    <text x="152" y="274" class="text" text-anchor="middle" font-size="10px">98</text>
    <text x="242" y="269" class="text" text-anchor="middle" font-size="10px">125</text>
    <text x="332" y="263" class="text" text-anchor="middle" font-size="10px">156</text>
    <text x="422" y="247" class="text" text-anchor="middle" font-size="10px">234</text>
  </g>
  
  <!-- Legend -->
  <g transform="translate(450, 100)">
    <rect x="0" y="0" width="15" height="15" class="wms-bar"/>
    <text x="20" y="12" class="legend">WMS服务</text>
    <rect x="0" y="25" width="15" height="15" class="mvt-bar"/>
    <text x="20" y="37" class="legend">MVT服务</text>
  </g>
</svg> 