<?xml version="1.0" encoding="UTF-8"?>
<svg width="800" height="400" xmlns="http://www.w3.org/2000/svg">
  <defs>
    <style>
      .title { font-family: Arial, sans-serif; font-size: 16px; font-weight: bold; }
      .subtitle { font-family: Arial, sans-serif; font-size: 14px; }
      .text { font-family: Arial, sans-serif; font-size: 12px; }
      .traditional { fill: #ffebee; stroke: #f44336; stroke-width: 2; }
      .modern { fill: #e8f5e8; stroke: #4caf50; stroke-width: 2; }
      .arrow { stroke: #666; stroke-width: 2; fill: none; marker-end: url(#arrowhead); }
    </style>
    <marker id="arrowhead" markerWidth="6" markerHeight="4" refX="6" refY="2" orient="auto">
      <polygon points="0 0, 6 2, 0 4" fill="#666" />
    </marker>
  </defs>
  
  <!-- Traditional WebGIS Architecture -->
  <g transform="translate(50, 50)">
    <text x="150" y="20" class="title" text-anchor="middle">传统WebGIS架构</text>
    
    <rect x="50" y="40" width="100" height="30" class="traditional" rx="5"/>
    <text x="100" y="60" class="text" text-anchor="middle">用户请求</text>
    
    <rect x="50" y="90" width="100" height="30" class="traditional" rx="5"/>
    <text x="100" y="110" class="text" text-anchor="middle">Web服务器</text>
    
    <rect x="50" y="140" width="100" height="30" class="traditional" rx="5"/>
    <text x="100" y="160" class="text" text-anchor="middle">WFS、WMS服务</text>
    
    <rect x="50" y="190" width="100" height="30" class="traditional" rx="5"/>
    <text x="100" y="210" class="text" text-anchor="middle">数据库</text>
    
    <rect x="50" y="240" width="100" height="30" class="traditional" rx="5"/>
    <text x="100" y="260" class="text" text-anchor="middle">栅格图片</text>
    
    <!-- Arrows -->
    <line x1="100" y1="70" x2="100" y2="90" class="arrow"/>
    <line x1="100" y1="120" x2="100" y2="140" class="arrow"/>
    <line x1="100" y1="170" x2="100" y2="190" class="arrow"/>
    <line x1="100" y1="220" x2="100" y2="240" class="arrow"/>
    
    <!-- Return path from 栅格图片 to 用户请求 -->
    <path d="M 150 255 L 180 255 L 180 55 L 150 55" class="arrow"/>
  </g>
  
  <!-- Modern Architecture -->
  <g transform="translate(450, 50)">
    <text x="150" y="20" class="title" text-anchor="middle">本研究架构</text>
    
    <rect x="50" y="40" width="100" height="25" class="modern" rx="5"/>
    <text x="100" y="57" class="text" text-anchor="middle">用户请求</text>
    
    <rect x="50" y="80" width="100" height="25" class="modern" rx="5"/>
    <text x="100" y="97" class="text" text-anchor="middle">负载均衡器</text>
    
    <polygon points="75,120 125,120 150,140 125,160 75,160 50,140" class="modern"/>
    <text x="100" y="145" class="text" text-anchor="middle">服务选择</text>
    
    <rect x="2" y="180" width="100" height="25" class="modern" rx="5"/>
    <text x="50" y="197" class="text" text-anchor="middle">WFS、WMS服务</text>
    
    <rect x="110" y="180" width="80" height="25" class="modern" rx="5"/>
    <text x="150" y="197" class="text" text-anchor="middle">MVT服务</text>
    
    <rect x="50" y="220" width="100" height="25" class="modern" rx="5"/>
    <text x="100" y="237" class="text" text-anchor="middle">PostgreSQL</text>
    
    <rect x="210" y="120" width="100" height="25" class="modern" rx="5"/>
    <text x="260" y="137" class="text" text-anchor="middle">智能缓存层</text>
    
    <rect x="210" y="160" width="100" height="25" class="modern" rx="5"/>
    <text x="260" y="177" class="text" text-anchor="middle">IndexDB缓存</text>
    
    <rect x="210" y="200" width="100" height="25" class="modern" rx="5"/>
    <text x="260" y="217" class="text" text-anchor="middle">深度学习预测</text>
    
    <!-- Arrows -->
    <line x1="100" y1="65" x2="100" y2="80" class="arrow"/>
    <line x1="100" y1="105" x2="100" y2="120" class="arrow"/>
    <line x1="75" y1="160" x2="50" y2="180" class="arrow"/>
    <line x1="125" y1="160" x2="150" y2="180" class="arrow"/>
    <line x1="50" y1="205" x2="80" y2="220" class="arrow"/>
    <line x1="150" y1="205" x2="120" y2="220" class="arrow"/>
    <line x1="150" y1="140" x2="210" y2="132" class="arrow"/>
    <line x1="260" y1="145" x2="260" y2="160" class="arrow"/>
    <line x1="260" y1="185" x2="260" y2="200" class="arrow"/>
    <!--<line x1="210" y1="210" x2="110" y2="52" class="arrow"/>-->
    <!-- Return path from 深度学习预测 to 用户请求 -->
    <path d="M 310 210 L 330 210 L 330 55 L 150 55" class="arrow"/>
  </g>
</svg> 