<?xml version="1.0" encoding="UTF-8"?>
<svg width="900" height="700" xmlns="http://www.w3.org/2000/svg">
  <defs>
    <style>
      .title { font-family: Arial, sans-serif; font-size: 16px; font-weight: bold; text-anchor: middle; }
      .subtitle { font-family: Arial, sans-serif; font-size: 11px; text-anchor: middle; }
      .small-text { font-family: Arial, sans-serif; font-size: 9px; text-anchor: middle; }
      .input { fill: #e6f3ff; stroke: #0066cc; stroke-width: 2; }
      .processing { fill: #fff2e6; stroke: #ff6600; stroke-width: 2; }
      .model { fill: #ffe6e6; stroke: #cc0000; stroke-width: 2; }
      .output { fill: #e6ffe6; stroke: #00cc00; stroke-width: 2; }
      .cache { fill: #f0e6ff; stroke: #6600cc; stroke-width: 2; }
      .arrow { stroke: #333; stroke-width: 2; fill: none; marker-end: url(#arrowhead); }
    </style>
    <marker id="arrowhead" markerWidth="8" markerHeight="5" refX="8" refY="2.5" orient="auto">
      <polygon points="0 0, 8 2.5, 0 5" fill="#333" />
    </marker>
  </defs>
  
  <!-- 标题 -->
  <text x="450" y="30" class="title">深度学习缓存预测系统架构图</text>
  
  <!-- 数据输入层 -->
  <rect x="50" y="70" width="140" height="80" class="input" />
  <text x="120" y="90" class="subtitle">用户访问日志</text>
  <text x="120" y="105" class="small-text">• 地理坐标</text>
  <text x="120" y="118" class="small-text">• 缩放级别</text>
  <text x="120" y="131" class="small-text">• 访问时间</text>
  <text x="120" y="144" class="small-text">• 会话信息</text>
  
  <rect x="50" y="180" width="140" height="40" class="input" />
  <text x="120" y="200" class="subtitle">系统性能指标</text>
  <text x="120" y="215" class="small-text">响应时间、并发数等</text>
  
  <!-- 数据采集模块 -->
  <rect x="250" y="110" width="120" height="60" class="processing" />
  <text x="310" y="135" class="subtitle">数据采集模块</text>
  <text x="310" y="150" class="small-text">实时数据收集</text>
  <text x="310" y="165" class="small-text">数据格式化</text>
  
  <!-- 特征工程模块 -->
  <rect x="420" y="70" width="120" height="120" class="processing" />
  <text x="480" y="90" class="subtitle">特征工程模块</text>
  <text x="480" y="110" class="small-text">数据清洗</text>
  <text x="480" y="125" class="small-text">特征提取</text>
  <text x="480" y="140" class="small-text">时序特征构建</text>
  <text x="480" y="155" class="small-text">特征标准化</text>
  <text x="480" y="175" class="subtitle">32维特征向量</text>
  
  <!-- LSTM模型训练模块 -->
  <rect x="600" y="70" width="180" height="120" class="model" />
  <text x="690" y="90" class="subtitle">LSTM神经网络</text>
  <text x="690" y="105" class="subtitle">模型训练模块</text>
  <text x="650" y="125" class="small-text">编码器(3层LSTM)</text>
  <text x="730" y="125" class="small-text">注意力机制</text>
  <text x="650" y="140" class="small-text">128神经元/层</text>
  <text x="730" y="140" class="small-text">时间权重分配</text>
  <text x="690" y="160" class="small-text">解码器(热点概率输出)</text>
  <text x="690" y="175" class="small-text">Dropout防过拟合</text>
  
  <!-- 历史数据 -->
  <rect x="600" y="220" width="120" height="40" class="input" />
  <text x="660" y="240" class="subtitle">历史缓存数据</text>
  <text x="660" y="255" class="small-text">30天访问历史</text>
  
  <!-- 预测服务模块 -->
  <rect x="300" y="300" width="140" height="80" class="output" />
  <text x="370" y="320" class="subtitle">预测服务模块</text>
  <text x="370" y="335" class="small-text">热点区域预测API</text>
  <text x="370" y="350" class="small-text">缓存策略生成</text>
  <text x="370" y="365" class="small-text">实时调度指令</text>
  
  <!-- 缓存调度器 -->
  <rect x="500" y="420" width="160" height="80" class="cache" />
  <text x="580" y="440" class="subtitle">缓存调度器</text>
  <text x="580" y="455" class="small-text">智能化资源分配</text>
  <text x="580" y="470" class="small-text">负载均衡机制</text>
  <text x="580" y="485" class="small-text">动态策略调整</text>
  
  <!-- 输出策略 -->
  <rect x="50" y="540" width="140" height="60" class="cache" />
  <text x="120" y="560" class="subtitle">动态缓存范围</text>
  <text x="120" y="575" class="subtitle">调整</text>
  <text x="120" y="590" class="small-text">热点区域扩展</text>
  
  <rect x="220" y="540" width="140" height="60" class="cache" />
  <text x="290" y="560" class="subtitle">分级缓存策略</text>
  <text x="290" y="575" class="small-text">高中低优先级</text>
  <text x="290" y="590" class="small-text">差异化处理</text>
  
  <rect x="390" y="540" width="140" height="60" class="cache" />
  <text x="460" y="560" class="subtitle">预加载优化</text>
  <text x="460" y="575" class="small-text">提前缓存</text>
  <text x="460" y="590" class="small-text">预测性加载</text>
  
  <!-- 连接线 -->
  <!-- 数据输入到数据采集 -->
  <line x1="190" y1="120" x2="250" y2="140" class="arrow" />
  <line x1="190" y1="200" x2="250" y2="150" class="arrow" />
  
  <!-- 数据采集到特征工程 -->
  <line x1="370" y1="140" x2="420" y2="130" class="arrow" />
  
  <!-- 特征工程到LSTM模型 -->
  <line x1="540" y1="130" x2="600" y2="130" class="arrow" />
  
  <!-- 历史数据到LSTM模型 -->
  <line x1="660" y1="220" x2="660" y2="190" class="arrow" />
  
  <!-- LSTM模型到预测服务 -->
  <line x1="600" y1="160" x2="440" y2="300" class="arrow" />
  
  <!-- 预测服务到缓存调度器 -->
  <line x1="440" y1="340" x2="500" y2="460" class="arrow" />
  
  <!-- 缓存调度器到各个策略 -->
  <line x1="520" y1="500" x2="190" y2="540" class="arrow" />
  <line x1="560" y1="500" x2="290" y2="540" class="arrow" />
  <line x1="600" y1="500" x2="460" y2="540" class="arrow" />
  
</svg> 