<?xml version="1.0" encoding="UTF-8"?>
<svg width="700" height="370" xmlns="http://www.w3.org/2000/svg">
  <defs>
    <style>
      .title { font-family: Arial, sans-serif; font-size: 16px; font-weight: bold; }
      .subtitle { font-family: Arial, sans-serif; font-size: 14px; font-weight: bold; }
      .text { font-family: Arial, sans-serif; font-size: 11px; }
      .manager { fill: #e3f2fd; stroke: #1976d2; stroke-width: 2; }
      .engine { fill: #f3e5f5; stroke: #7b1fa2; stroke-width: 2; }
      .monitor { fill: #e8f5e8; stroke: #4caf50; stroke-width: 2; }
      .storage { fill: #fff3e0; stroke: #f57c00; stroke-width: 2; }
      .mapview { fill: #f0e0e0; stroke:rgb(245, 90, 0); stroke-width: 2; }
      .arrow { stroke: #666; stroke-width: 2; fill: none; marker-end: url(#arrowhead); }
    </style>
    <marker id="arrowhead" markerWidth="8" markerHeight="5" refX="8" refY="2.5" orient="auto">
      <polygon points="0 0, 8 2.5, 0 5" fill="#666" />
    </marker>
  </defs>
  
  <text x="350" y="30" class="title" text-anchor="middle">IndexDB缓存架构</text>
  
  <!-- Top level components -->
  <rect x="50" y="60" width="140" height="50" class="manager" rx="5"/>
  <text x="120" y="85" class="text" text-anchor="middle" font-weight="bold">缓存管理器</text>
  
  <rect x="220" y="60" width="140" height="50" class="engine" rx="5"/>
  <text x="290" y="85" class="text" text-anchor="middle" font-weight="bold">存储引擎</text>
  
  <rect x="390" y="60" width="140" height="50" class="engine" rx="5"/>
  <text x="460" y="85" class="text" text-anchor="middle" font-weight="bold">预测引擎</text>
  
  <rect x="560" y="60" width="140" height="50" class="monitor" rx="5"/>
  <text x="630" y="85" class="text" text-anchor="middle" font-weight="bold">性能监控</text>
  
  <!-- Storage engine details -->
  <g transform="translate(220, 140)">
    <text x="70" y="20" class="subtitle" text-anchor="middle">存储引擎详细</text>
    
    <rect x="10" y="30" width="130" height="35" class="storage" rx="3"/>
    <text x="75" y="52" class="text" text-anchor="middle">瓦片数据表</text>
    
    <rect x="10" y="75" width="130" height="35" class="storage" rx="3"/>
    <text x="75" y="97" class="text" text-anchor="middle">元数据表</text>
    
    <rect x="10" y="120" width="130" height="35" class="storage" rx="3"/>
    <text x="75" y="142" class="text" text-anchor="middle">统计信息表</text>
  </g>
  
  <!-- Prediction engine details -->
  <g transform="translate(390, 140)">
    <text x="70" y="20" class="subtitle" text-anchor="middle">预测引擎详细</text>
    
    <rect x="10" y="30" width="130" height="35" class="engine" rx="3"/>
    <text x="75" y="52" class="text" text-anchor="middle">用户行为分析</text>
    
    <rect x="10" y="75" width="130" height="35" class="engine" rx="3"/>
    <text x="75" y="97" class="text" text-anchor="middle">空间关联性分析</text>
    
    <rect x="10" y="120" width="130" height="35" class="engine" rx="3"/>
    <text x="75" y="142" class="text" text-anchor="middle">LRU淘汰算法</text>
  </g>
  
  <!-- Performance monitoring details -->
  <g transform="translate(560, 140)">
    <text x="70" y="20" class="subtitle" text-anchor="middle">性能监控详细</text>
    
    <rect x="10" y="30" width="130" height="35" class="monitor" rx="3"/>
    <text x="75" y="52" class="text" text-anchor="middle">命中率统计</text>
    
    <rect x="10" y="75" width="130" height="35" class="monitor" rx="3"/>
    <text x="75" y="97" class="text" text-anchor="middle">响应时间监控</text>
    
    <rect x="10" y="120" width="130" height="35" class="monitor" rx="3"/>
    <text x="75" y="142" class="text" text-anchor="middle">存储空间管理</text>
  </g>
  
  <!-- Main connections -->
  <line x1="120" y1="110" x2="120" y2="250" class="arrow"/>
  <line x1="290" y1="110" x2="290" y2="140" class="arrow"/>
  <line x1="460" y1="110" x2="460" y2="140" class="arrow"/>
  <line x1="630" y1="110" x2="630" y2="140" class="arrow"/>
  
  <!-- Cross connections -->
  <line x1="190" y1="85" x2="220" y2="85" class="arrow"/>
  <line x1="360" y1="85" x2="390" y2="85" class="arrow"/>
  <line x1="530" y1="85" x2="560" y2="85" class="arrow"/>
  
  <!-- Data flow labels -->
  <rect x="50" y="250" width="140" height="50" class="mapview" rx="3"/>
  <text x="110" y="275" class="text" text-anchor="middle" font-weight="bold">地图显示</text>
  <text x="290" y="320" class="text" text-anchor="middle">存储操作</text>
  <text x="460" y="320" class="text" text-anchor="middle">智能预测</text>
  <text x="630" y="320" class="text" text-anchor="middle">性能监控</text>
</svg> 