<svg width="600" height="400" xmlns="http://www.w3.org/2000/svg">
  <!-- 背景 -->
  <rect width="600" height="400" fill="#f8f9fa"/>
  
  <!-- 标题 -->
  <text x="300" y="30" text-anchor="middle" font-size="18" font-weight="bold" fill="#333">系统总体架构图</text>
  
  <!-- 数据接入层 -->
  <rect x="50" y="60" width="500" height="60" fill="#e3f2fd" stroke="#1976d2" stroke-width="2" rx="5"/>
  <text x="300" y="85" text-anchor="middle" font-size="14" font-weight="bold" fill="#1976d2">数据接入层</text>
  <text x="300" y="105" text-anchor="middle" font-size="12" fill="#1976d2">SHP, DXF, GeoJSON, MBTiles 格式处理</text>
  
  <!-- 服务处理层外框 -->
  <rect x="50" y="140" width="500" height="80" fill="#f5f5f5" stroke="#424242" stroke-width="2" rx="5"/>
  <text x="300" y="160" text-anchor="middle" font-size="14" font-weight="bold" fill="#424242">服务处理层</text>
  
  <!-- GeoServer服务 -->
  <rect x="70" y="170" width="200" height="40" fill="#e8f5e8" stroke="#388e3c" stroke-width="2" rx="5"/>
  <text x="170" y="185" text-anchor="middle" font-size="12" font-weight="bold" fill="#388e3c">GeoServer WMS+WFS</text>
  <text x="170" y="200" text-anchor="middle" font-size="10" fill="#388e3c">传统栅格服务</text>
  
  <!-- Martin服务 -->
  <rect x="330" y="170" width="200" height="40" fill="#fff3e0" stroke="#f57c00" stroke-width="2" rx="5"/>
  <text x="430" y="185" text-anchor="middle" font-size="12" font-weight="bold" fill="#f57c00">Martin MVT</text>
  <text x="430" y="200" text-anchor="middle" font-size="10" fill="#f57c00">矢量瓦片服务</text>
  
  <!-- 缓存优化层 -->
  <rect x="50" y="240" width="500" height="60" fill="#fce4ec" stroke="#c2185b" stroke-width="2" rx="5"/>
  <text x="300" y="265" text-anchor="middle" font-size="14" font-weight="bold" fill="#c2185b">智能缓存优化层</text>
  <text x="300" y="285" text-anchor="middle" font-size="12" fill="#c2185b">前端IndexDB缓存 + 后端深度学习预测 + 多级缓存策略</text>
  
  <!-- 前端展示层 -->
  <rect x="50" y="320" width="500" height="60" fill="#f3e5f5" stroke="#7b1fa2" stroke-width="2" rx="5"/>
  <text x="300" y="345" text-anchor="middle" font-size="14" font-weight="bold" fill="#7b1fa2">前端展示层</text>
  <text x="300" y="365" text-anchor="middle" font-size="12" fill="#7b1fa2">Vue.js + OpenLayers/Leaflet 双引擎架构</text>
  
  <!-- 连接线 -->
  <line x1="300" y1="120" x2="300" y2="126" stroke="#666" stroke-width="2" marker-end="url(#arrowhead)"/>
  <line x1="300" y1="220" x2="300" y2="226" stroke="#666" stroke-width="2" marker-end="url(#arrowhead)"/>
  <line x1="300" y1="300" x2="300" y2="306" stroke="#666" stroke-width="2" marker-end="url(#arrowhead)"/>
  
  <!-- 箭头标记 -->
  <defs>
    <marker id="arrowhead" markerWidth="8" markerHeight="5" refX="0" refY="2.5" orient="auto">
      <polygon points="0 0, 8 2.5, 0 5" fill="#666"/>
    </marker>
  </defs>
</svg> 